<?xml version="1.0" standalone="no"?>
<!DOCTYPE svg PUBLIC "-//W3C//DTD SVG 20010904//EN"
 "http://www.w3.org/TR/2001/REC-SVG-20010904/DTD/svg10.dtd">
<svg version="1.0" xmlns="http://www.w3.org/2000/svg"
 width="256.000000pt" height="256.000000pt" viewBox="0 0 256.000000 256.000000"
 preserveAspectRatio="xMidYMid meet">
<metadata>
Created by potrace 1.11, written by Peter Selinger 2001-2013
</metadata>
<g transform="translate(0.000000,256.000000) scale(0.100000,-0.100000)"
fill="#000000" stroke="none">
<path d="M1128 2549 c-178 -21 -372 -90 -535 -190 -108 -67 -299 -253 -370
-359 -96 -144 -161 -298 -199 -475 -24 -111 -24 -369 0 -480 59 -274 168 -471
365 -665 78 -76 146 -133 204 -169 459 -283 1026 -261 1454 57 194 145 355
363 437 590 95 264 95 590 0 854 -64 178 -160 326 -303 469 -281 282 -656 413
-1053 368z m354 -199 c445 -95 784 -481 827 -943 19 -202 -17 -396 -108 -582
-59 -118 -106 -184 -203 -283 -117 -118 -256 -205 -412 -257 -107 -36 -106
-36 -106 38 l0 63 58 18 c76 25 184 79 257 131 125 88 263 261 314 393 l21 52
-514 0 -514 0 28 -88 27 -87 136 -3 137 -3 0 56 0 56 63 -3 62 -3 3 -117 3
-118 -336 0 -335 0 0 -45 0 -45 -70 0 -71 0 3 157 3 158 68 3 67 3 0 -51 0
-50 65 0 c36 0 65 3 65 7 0 10 -78 256 -216 678 -68 209 -124 383 -124 388 0
4 38 7 85 7 47 0 85 2 85 5 0 3 -7 22 -15 42 -8 19 -15 41 -15 47 0 6 25 21
55 33 63 24 55 30 94 -69 l23 -58 286 -2 287 -3 125 -382 125 -383 178 0 c97
0 177 3 177 8 0 4 5 47 11 96 34 275 -87 592 -298 786 -174 160 -385 242 -623
242 -67 0 -145 -7 -187 -16 -309 -67 -556 -279 -675 -576 -86 -217 -84 -488 7
-711 59 -145 192 -313 322 -405 76 -55 206 -117 296 -140 l67 -18 0 -63 c0
-74 2 -73 -110 -43 -109 30 -282 119 -375 195 -489 393 -538 1125 -106 1579
257 269 621 383 983 306z"/>
<path d="M866 1710 c8 -28 27 -85 42 -128 l27 -77 308 -3 c169 -1 307 1 306 5
0 5 -19 62 -42 128 l-42 120 -307 3 -307 2 15 -50z"/>
<path d="M980 1373 c0 -4 18 -65 40 -135 l41 -128 310 0 c291 0 310 1 305 18
-3 9 -23 69 -44 132 l-39 115 -306 3 c-169 1 -307 -1 -307 -5z"/>
</g>
</svg>
