<svg id="Layer_2" data-name="Layer 2" xmlns="http://www.w3.org/2000/svg" viewBox="0 0 516.06 516.06"><defs><style>.cls-1,.cls-2,.cls-3,.cls-4,.cls-5{fill:none;stroke:#fff;stroke-miterlimit:10;}.cls-1{stroke-width:25px;}.cls-2{stroke-width:15px;}.cls-3{stroke-width:20px;}.cls-4{stroke-width:22px;}.cls-5{stroke-width:12px;}</style></defs><path class="cls-1" d="M147,143.07c44.19-36.82,101.43-55.59,141.69-54.92,82.22,1.36,124.47,43.63,143.94,67.36L283.49,193.15" transform="translate(-25.43 -25.43)"/><path class="cls-2" d="M353.38,175.5" transform="translate(-25.43 -25.43)"/><line class="cls-2" x1="135.53" y1="158.48" x2="176.89" y2="221.95"/><polyline class="cls-3" points="120.38 333.83 233.4 314.84 214.59 374.86"/><path class="cls-1" d="M353.38,181.33c7.56,34.16,23,85.21,14.15,145.66-8.46,57.74-32,90.22-47.86,114.72" transform="translate(-25.43 -25.43)"/><line class="cls-2" x1="146.55" y1="131.97" x2="187.91" y2="195.44"/><path class="cls-3" d="M174.38,312.37c8.09-5.32,42.27-29.08,54.13-75.77,12.75-50.24-13.53-98.12-18-105.66" transform="translate(-25.43 -25.43)"/><line class="cls-1" x1="256.66" y1="378.68" x2="320.26" y2="363.85"/><path class="cls-4" d="M199.31,320,172,445.3a180.93,180.93,0,0,0,46.72,22.79c38.84,12.41,72.8,8.64,91.17,5.13" transform="translate(-25.43 -25.43)"/><circle class="cls-3" cx="258.03" cy="258.03" r="248.03"/><path class="cls-5" d="M282.1,304.46a49.16,49.16,0,0,1,1.61,50.24" transform="translate(-25.43 -25.43)"/><path class="cls-5" d="M310,297.88a49.13,49.13,0,0,1,1.62,50.24" transform="translate(-25.43 -25.43)"/></svg>