<svg id="Layer_3" data-name="Layer 3" xmlns="http://www.w3.org/2000/svg" viewBox="0 0 446.44 472.76"><defs><style>.cls-1{fill:none;stroke:#fff;stroke-miterlimit:10;stroke-width:25px;}</style></defs><line class="cls-1" x1="268.3" y1="51.33" x2="253.2" y2="275.1"/><line class="cls-1" x1="214.76" y1="304.62" x2="300.56" y2="235.29"/><line class="cls-1" x1="292.32" y1="100.75" x2="439" y2="116.43"/><line class="cls-1" x1="370.16" y1="57.51" x2="438.19" y2="117.24"/><path class="cls-1" d="M257.61,361.92s-22.29,9.6-77.54,17.14c-62,8.46-11.32-187-11.32-187" transform="translate(-54.88 -52.87)"/><path class="cls-1" d="M346.42,210.6S46.65,217.39,68.52,347.88C90.49,479,223,476.24,223,476.24" transform="translate(-54.88 -52.87)"/><line class="cls-1" x1="225.75" y1="205.72" x2="60.67" y2="254.11"/><path class="cls-1" d="M278.84,114.82,393.16,70l2.09,10.87S498.38,481.14,259.52,481" transform="translate(-54.88 -52.87)"/><line class="cls-1" x1="319.74" y1="375.57" x2="274.6" y2="467.24"/><line class="cls-1" x1="341.03" y1="442.53" x2="300.56" y2="428.17"/><line class="cls-1" x1="93.24" y1="405.64" x2="325.67" y2="367.13"/><line class="cls-1" x1="174.95" y1="349.92" x2="185.93" y2="439.15"/><line class="cls-1" x1="257.66" y1="300.5" x2="291.54" y2="346.49"/></svg>