<svg id="Layer_2" data-name="Layer 2" xmlns="http://www.w3.org/2000/svg" xmlns:xlink="http://www.w3.org/1999/xlink" viewBox="0 0 507.72 507.72"><defs><style>.cls-1,.cls-2{fill:none;}.cls-2{stroke:#fff;stroke-miterlimit:10;stroke-width:40px;}.cls-3{clip-path:url(#clip-path);}</style><clipPath id="clip-path" transform="translate(-29.61 -29.61)"><polygon class="cls-1" points="242.19 566.93 242.19 482.71 327.36 482.71 327.36 566.93 327.36 614.32 608.64 614.32 608.64 67.87 608.64 -27.61 -54.58 -27.61 -54.58 624 241.55 624 242.19 566.93"/></clipPath></defs><line class="cls-2" x1="190.01" y1="311.81" x2="471.3" y2="311.81"/><path class="cls-2" d="M395.1,341.42S333.81,167.23,333.16,164H160.9l84.52,243.23" transform="translate(-29.61 -29.61)"/><polyline class="cls-2" points="150.65 377.62 301.62 377.62 301.62 343.43"/><line class="cls-2" x1="150.65" y1="338.26" x2="150.65" y2="411.81"/><line class="cls-2" x1="161.62" y1="93.1" x2="179.68" y2="128.59"/><line class="cls-2" x1="161.62" y1="218.91" x2="324.2" y2="218.91"/><g class="cls-3"><path class="cls-2" d="M240.43,513.37C131.83,493.17,49.61,397.92,49.61,283.46c0-129.15,104.7-233.85,233.85-233.85s233.86,104.7,233.86,233.85S412.62,517.32,283.46,517.32a234.67,234.67,0,0,1-43-4" transform="translate(-29.61 -29.61)"/></g></svg>